<?xml version="1.0" standalone="no"?>
<!DOCTYPE svg PUBLIC "-//W3C//DTD SVG 20010904//EN"
 "http://www.w3.org/TR/2001/REC-SVG-20010904/DTD/svg10.dtd">
<svg version="1.0" xmlns="http://www.w3.org/2000/svg"
 width="789.000000pt" height="1280.000000pt" viewBox="0 0 789.000000 1280.000000"
 preserveAspectRatio="xMidYMid meet">
<metadata>
Created by potrace 1.15, written by Peter Selinger 2001-2017
</metadata>
<g transform="translate(0.000000,1280.000000) scale(0.100000,-0.100000)"
fill="#000000" stroke="none">
<path d="M6855 12524 c-282 -116 -413 -166 -570 -217 -377 -124 -753 -201
-1175 -242 -416 -41 -1296 -27 -1885 31 -549 53 -1113 183 -1654 381 -95 34
-177 63 -182 63 -5 0 -24 -10 -43 -22 l-33 -22 -7 -250 c-8 -293 -23 -734 -31
-891 -66 -1333 -177 -2460 -366 -3695 -34 -226 -140 -849 -168 -995 -15 -76
-17 -103 -8 -111 14 -13 725 -444 732 -444 4 0 74 49 158 108 592 422 963 616
1323 693 141 30 391 37 542 15 419 -62 744 -281 980 -662 241 -389 378 -918
421 -1624 11 -181 6 -788 -9 -975 -60 -787 -216 -1346 -490 -1757 -288 -434
-693 -648 -1225 -650 -244 0 -428 38 -607 128 -145 72 -242 155 -278 237 -18
41 -19 51 -8 64 7 9 128 112 268 228 310 258 357 310 445 498 93 198 131 400
122 657 -13 370 -130 637 -392 888 -198 191 -409 301 -695 364 -93 20 -132 22
-335 22 -226 0 -232 -1 -350 -32 -142 -38 -325 -124 -430 -204 -246 -186 -434
-470 -520 -784 -46 -165 -57 -251 -62 -470 -8 -301 18 -493 97 -734 263 -805
1078 -1396 2180 -1584 481 -82 1081 -96 1599 -36 976 112 1743 450 2335 1029
290 285 482 543 656 886 206 403 332 845 396 1385 21 183 30 754 15 960 -57
747 -273 1382 -651 1910 -666 931 -1694 1410 -2955 1377 -418 -11 -761 -73
-1164 -212 -350 -121 -664 -279 -975 -492 l-108 -74 5 43 c4 24 63 657 133
1408 69 751 127 1366 128 1367 1 1 38 -12 82 -29 321 -125 618 -154 1489 -145
736 8 1098 37 1520 123 716 145 1255 461 1699 994 39 47 105 122 148 167 229
246 367 589 394 980 l7 101 -38 69 c-50 89 -127 170 -190 199 -79 37 -138 32
-270 -22z"/>
</g>
</svg>
